<?xml version="1.0" encoding="utf-8"?>
<svg id="master-artboard" viewBox="0 0 96 96" version="1.1" xmlns="http://www.w3.org/2000/svg" x="0px" y="0px" style="enable-background:new 0 0 1400 980;" width="96px" height="96px"><rect id="ee-background" x="0" y="0" width="96" height="96" style="fill: white; fill-opacity: 1; pointer-events: none;"/><defs><style id="ee-google-fonts">@import url(https://fonts.googleapis.com/css?family=Roboto:100,100italic,300,300italic,400,400italic,500,500italic,700,700italic,900,900italic);</style></defs>























































































































<g transform="matrix(1.2760417461395264, 0, 0, 1.2760417461395264, -592.4244995117188, -431.122802734375)"><g id="surface1" transform="matrix(1, 0, 0, 1, 1.1297705350579008, 1.9770984363513264)">
<path d="M 0 0 H 1024 V 768 H 0 V 0 Z" style="fill:rgb(100%,100%,100%);fill-opacity:1;stroke:none;" transform="matrix(1, 0, 0, 1, 164.44080342017543, 91.68978739619715)"/>
<path style="fill:none;stroke-width:4;stroke-linecap:butt;stroke-linejoin:miter;stroke:rgb(0%,0%,0%);stroke-opacity:1;stroke-miterlimit:4;" d="M 0.0019375 0.0019375 L 96.1035 0.0019375 L 96.1035 96.1035 L 0.0019375 96.1035 Z M 0.0019375 0.0019375 " transform="matrix(0.7502266764640808, 0, 0, 0.7502266764640808, 464.7214750572882, 337.50516346592644)"/>
<path style="fill:none;stroke-width:6;stroke-linecap:butt;stroke-linejoin:miter;stroke:rgb(0%,0%,0%);stroke-opacity:1;stroke-miterlimit:4;" d="M -0.0013877 0.0000265165 L 44.49662 0.0000265165 " transform="matrix(0.4732201099395752, -0.4732201099395752, 0.485988050699234, 0.485988050699234, 469.8329162597656, 395.1480892747325)"/>
<path style="fill:none;stroke-width:6;stroke-linecap:butt;stroke-linejoin:miter;stroke:rgb(0%,0%,0%);stroke-opacity:1;stroke-miterlimit:4;" d="M -0.000649654 -0.000517072 L 30.653533 -0.000517072 " transform="matrix(0.47000640630722046, 0.47000640630722046, -0.485988050699234, 0.485988050699234, 488.36525236067007, 374.36898803710943)"/>
<path style=" stroke:none;fill-rule:nonzero;fill:rgb(38.038635%,84.706116%,21.176147%);fill-opacity:1;" d="M 539.28125 354.292969 C 543.675781 358.730469 543.675781 365.921875 539.28125 370.359375 C 534.890625 374.792969 527.765625 374.792969 523.375 370.359375 C 518.980469 365.921875 518.980469 358.730469 523.375 354.292969 C 527.765625 349.859375 534.890625 349.859375 539.28125 354.292969 Z M 539.28125 354.292969 " transform="matrix(0.7873242497444152, 0, 0, 0.7873242497444152, 98.50640568571333, 73.97106425158697)"/>


</g></g><path style="fill:none;stroke-width:6;stroke-linecap:butt;stroke-linejoin:miter;stroke:rgb(0%,0%,0%);stroke-opacity:1;stroke-miterlimit:4;" d="M -0.0013877 0.0000265165 L 44.49662 0.0000265165 " transform="matrix(0.6038485169410706, -0.6038485169410706, 0.6201410889625549, 0.6201410889625549, 44.945289611816406, 85.93251037597655)"/><path style="fill:none;stroke-width:6;stroke-linecap:butt;stroke-linejoin:miter;stroke:rgb(0%,0%,0%);stroke-opacity:1;stroke-miterlimit:4;" d="M -0.000649654 -0.000517072 L 30.653533 -0.000517072 " transform="matrix(0.5997477173805237, 0.5997477173805237, -0.6201410889625549, 0.6201410889625549, 68.59333038330078, 58.41748428344726)"/></svg>